<svg width="54" height="40" viewBox="0 0 54 40" fill="none" xmlns="http://www.w3.org/2000/svg">
<path d="M48.3333 0H5C2.23854 0 0 2.23854 0 5V35C0 37.7615 2.23854 40 5 40H48.3333C51.0948 40 53.3333 37.7615 53.3333 35V5C53.3333 2.23854 51.0948 0 48.3333 0ZM48.3333 5V9.25052C45.9977 11.1525 42.2742 14.11 34.3139 20.3432C32.5596 21.7231 29.0846 25.0382 26.6667 24.9996C24.2492 25.0386 20.773 21.7226 19.0195 20.3432C11.0604 14.1109 7.33594 11.1528 5 9.25052V5H48.3333ZM5 35V15.6665C7.38687 17.5676 10.7718 20.2354 15.931 24.2754C18.2078 26.0676 22.195 30.024 26.6667 29.9999C31.1164 30.024 35.053 26.125 37.4014 24.2762C42.5605 20.2364 45.9464 17.5678 48.3333 15.6666V35H5Z" fill="#F1F1F1"/>
</svg>
