<svg width="40" height="40" viewBox="0 0 40 40" fill="none" xmlns="http://www.w3.org/2000/svg">
<path d="M8.95377 40H0.660729V13.294H8.95377V40ZM4.80279 9.65111C2.15094 9.65111 0 7.45463 0 4.80279C1.89808e-08 3.52901 0.506006 2.3074 1.4067 1.4067C2.3074 0.506006 3.52901 0 4.80279 0C6.07656 0 7.29817 0.506006 8.19887 1.4067C9.09956 2.3074 9.60557 3.52901 9.60557 4.80279C9.60557 7.45463 7.45374 9.65111 4.80279 9.65111ZM39.992 40H31.7168V26.9997C31.7168 23.9014 31.6543 19.9281 27.4051 19.9281C23.0934 19.9281 22.4326 23.2943 22.4326 26.7765V40H14.1485V13.294H22.1023V16.937H22.2184C23.3255 14.8387 26.03 12.6244 30.065 12.6244C38.458 12.6244 40.0009 18.1513 40.0009 25.33V40H39.992Z" fill="#F1F1F1"/>
</svg>
